<svg width="40" height="38" viewBox="0 0 40 38" fill="none" xmlns="http://www.w3.org/2000/svg">
<g id="et:search" clip-path="url(#clip0_17_576)">
<g id="Group">
<path id="Vector" d="M2.27273 38H27.0909C28.0683 38 28.8636 37.2008 28.8636 36.2188V27.3125C28.8636 27.3006 28.8577 27.2911 28.8565 27.2793C28.9215 27.2377 28.9889 27.1985 29.0527 27.1546L38.4907 36.6379C38.5452 36.6947 38.6103 36.74 38.6823 36.7713C38.7544 36.8025 38.8319 36.819 38.9104 36.8198C38.9888 36.8205 39.0666 36.8056 39.1393 36.7759C39.212 36.7461 39.278 36.7021 39.3336 36.6465C39.3891 36.5908 39.4331 36.5246 39.4629 36.4517C39.4927 36.3787 39.5078 36.3006 39.5072 36.2217C39.5066 36.1429 39.4905 36.065 39.4596 35.9925C39.4287 35.92 39.3838 35.8544 39.3275 35.7996L29.9757 26.4029C30.7431 25.6834 31.3551 24.8132 31.7737 23.8461C32.1923 22.879 32.4086 21.8358 32.4091 20.7812C32.4079 19.4855 32.0819 18.2108 31.461 17.0751C30.84 15.9394 29.9443 14.9792 28.8565 14.2832C28.8577 14.2714 28.8636 14.2619 28.8636 14.25V11.2812C28.8636 11.2611 28.8542 11.2444 28.853 11.2254C28.8506 11.1981 28.8435 11.1744 28.8376 11.1482C28.8191 11.0658 28.7828 10.9883 28.7313 10.9214C28.723 10.9107 28.7242 10.8977 28.7159 10.887L19.2614 0.1995C19.2578 0.195937 19.2531 0.195938 19.2495 0.192375C19.1776 0.116441 19.0865 0.0614611 18.986 0.03325C18.9635 0.026125 18.9435 0.02375 18.9198 0.0201875C18.8855 0.01425 18.8536 0 18.8182 0H2.27273C1.29536 0 0.5 0.799187 0.5 1.78125V36.2188C0.5 37.2008 1.29536 38 2.27273 38ZM31.2273 20.7812C31.2273 24.3829 28.3105 27.3125 24.7273 27.3125C21.144 27.3125 18.2273 24.3829 18.2273 20.7812C18.2273 17.1796 21.144 14.25 24.7273 14.25C28.3105 14.25 31.2273 17.1796 31.2273 20.7812ZM19.4091 2.15531L26.9574 10.6875H20C19.74 10.6875 19.4091 10.1888 19.4091 9.79688V2.15531ZM1.68182 1.78125C1.68182 1.62378 1.74407 1.47276 1.85489 1.36141C1.96571 1.25006 2.11601 1.1875 2.27273 1.1875H18.2273V9.79688C18.2273 10.7576 19.0014 11.875 20 11.875H27.6818V13.6574C26.2543 13.0574 24.6794 12.9064 23.1647 13.2242C21.65 13.542 20.2668 14.3137 19.1975 15.4375H7C6.84328 15.4375 6.69298 15.5001 6.58216 15.6114C6.47135 15.7228 6.40909 15.8738 6.40909 16.0312C6.40909 16.1887 6.47135 16.3397 6.58216 16.4511C6.69298 16.5624 6.84328 16.625 7 16.625H18.2651C17.5802 17.6947 17.1716 18.9192 17.0762 20.1875H7C6.84328 20.1875 6.69298 20.2501 6.58216 20.3614C6.47135 20.4728 6.40909 20.6238 6.40909 20.7812C6.40909 20.9387 6.47135 21.0897 6.58216 21.2011C6.69298 21.3124 6.84328 21.375 7 21.375H17.075C17.171 22.6432 17.5796 23.8675 18.2639 24.9375H7C6.84328 24.9375 6.69298 25.0001 6.58216 25.1114C6.47135 25.2228 6.40909 25.3738 6.40909 25.5312C6.40909 25.6887 6.47135 25.8397 6.58216 25.9511C6.69298 26.0624 6.84328 26.125 7 26.125H19.1136C19.1385 26.125 19.1597 26.1143 19.1845 26.1108C20.2534 27.2393 21.6382 28.015 23.1556 28.3353C24.673 28.6555 26.2514 28.505 27.6818 27.9039V36.2188C27.6818 36.3762 27.6196 36.5272 27.5087 36.6386C27.3979 36.7499 27.2476 36.8125 27.0909 36.8125H2.27273C1.94182 36.8125 1.68182 36.5513 1.68182 36.2188V1.78125Z" fill="#7C7C7C"/>
<path id="Vector_2" d="M7 11.875H14.0909C14.2476 11.875 14.3979 11.8124 14.5087 11.7011C14.6196 11.5897 14.6818 11.4387 14.6818 11.2812C14.6818 11.1238 14.6196 10.9728 14.5087 10.8614C14.3979 10.7501 14.2476 10.6875 14.0909 10.6875H7C6.84328 10.6875 6.69298 10.7501 6.58216 10.8614C6.47134 10.9728 6.40909 11.1238 6.40909 11.2812C6.40909 11.4387 6.47134 11.5897 6.58216 11.7011C6.69298 11.8124 6.84328 11.875 7 11.875ZM7 30.875H22.3636C22.5204 30.875 22.6707 30.8124 22.7815 30.7011C22.8923 30.5897 22.9545 30.4387 22.9545 30.2812C22.9545 30.1238 22.8923 29.9728 22.7815 29.8614C22.6707 29.7501 22.5204 29.6875 22.3636 29.6875H7C6.84328 29.6875 6.69298 29.7501 6.58216 29.8614C6.47134 29.9728 6.40909 30.1238 6.40909 30.2812C6.40909 30.4387 6.47134 30.5897 6.58216 30.7011C6.69298 30.8124 6.84328 30.875 7 30.875Z" fill="#7C7C7C"/>
</g>
</g>
<defs>
<clipPath id="clip0_17_576">
<rect width="39" height="38" fill="white" transform="translate(0.5)"/>
</clipPath>
</defs>
</svg>
